<svg width="2731" height="3543" viewBox="0 0 2731 3543" fill="none" xmlns="http://www.w3.org/2000/svg">
<rect width="2731" height="3543" fill="#DDD9EB"/>
<path d="M2602.57 1587.14C2533.45 1134.73 2250.07 578.901 1690.2 520.733C1690.2 520.733 1265.13 469.03 846.102 547.392C597.407 593.9 379.338 732.344 241.354 931.323C103.368 1130.3 57.2763 1372.93 113.214 1604.24C149.546 1754.49 174.097 1909.98 167.359 2064.36C155.633 2333.05 162.379 2583.85 423.134 2744.09C655.957 2887.16 948.97 3013.35 1228.51 3035.45C1418.48 3050.47 1631.52 3026.16 1814.62 2976.7C2747.72 2724.64 2671.69 2039.56 2602.57 1587.14Z" fill="#F4F7FA"/>
<path d="M1800.89 2664.84C1791.07 2662.04 1810.8 2612.19 1791.83 2541.6C1787.09 2523.97 1767.91 2425.98 1694.16 2411.97C1679.85 2409.25 1665.53 2406.53 1651.21 2403.81C1643.79 2369.58 1643.14 2335.93 1688.71 2330.25C1759.49 2321.42 1776.92 2208.23 1763.84 2165.22C1747.65 2112 1712.59 1987.4 1821.74 1972.11C1912.6 1959.38 1974.52 1968.92 1995.43 1863.48C2016.34 1758.03 2086.87 1701.08 2187.84 1723.06C2294.1 1746.2 2400.8 1624.56 2482.32 1683.27C2624.37 1785.56 2453.14 1998.69 2257.61 2038C2062.07 2077.32 2159.98 2157.24 2152.89 2245.07C2151.77 2253.19 2149.41 2265.69 2143.82 2279.91C2109.41 2367.45 2012.34 2368.55 1933.23 2432.42C1825.34 2519.52 1817.42 2669.57 1800.89 2664.84Z" fill="white"/>
<path d="M1888.92 2468.2L1655.61 2430.56C1646.64 2397.09 1637.8 2336.59 1688.71 2330.25C1759.49 2321.42 1776.92 2208.22 1763.84 2165.22C1747.65 2111.99 1712.59 1987.39 1821.74 1972.11C1912.6 1959.38 1974.52 1968.92 1995.43 1863.47C2016.34 1758.03 2086.87 1701.08 2187.84 1723.06C2294.1 1746.2 2400.8 1624.56 2482.32 1683.26C2624.37 1785.55 2453.14 1998.69 2257.61 2038C2062.07 2077.31 2159.98 2157.24 2152.89 2245.07C2143.21 2364.98 1977.11 2313.51 1925.81 2353.32C1885.59 2384.52 1885.08 2436.03 1888.92 2468.2Z" fill="#D8DEE8"/>
<mask id="mask0_331_7406" style="mask-type:luminance" maskUnits="userSpaceOnUse" x="1648" y="1667" width="887" height="802">
<path d="M1888.92 2468.2L1655.61 2430.56C1646.64 2397.09 1637.8 2336.59 1688.71 2330.25C1759.49 2321.42 1776.92 2208.22 1763.84 2165.22C1747.65 2111.99 1712.59 1987.39 1821.74 1972.11C1912.6 1959.38 1974.52 1968.92 1995.43 1863.47C2016.34 1758.03 2086.87 1701.08 2187.84 1723.06C2294.1 1746.2 2400.8 1624.56 2482.32 1683.26C2624.37 1785.55 2453.14 1998.69 2257.61 2038C2062.07 2077.31 2159.98 2157.24 2152.89 2245.07C2143.21 2364.98 1977.11 2313.51 1925.81 2353.32C1885.59 2384.52 1885.08 2436.03 1888.92 2468.2Z" fill="white"/>
</mask>
<g mask="url(#mask0_331_7406)">
<g opacity="0.5">
<path d="M1784.2 2415.73L1779.37 2414C1901.45 2082.08 2194.09 1812.99 2543.1 1711.75L2544.72 1716.4C2197.19 1817.21 1905.77 2085.18 1784.2 2415.73Z" fill="#FCFDFE"/>
<path d="M1867.23 2240.65L1862.17 2239.86C1881.83 2102.19 1772.73 1975.34 1771.62 1974.08L1775.51 1971.04C1776.63 1972.32 1887.2 2100.81 1867.23 2240.65Z" fill="#FCFDFE"/>
<path d="M1808.42 2355.3L1804.29 2352.33C1891.81 2240.49 2162.02 2265.15 2164.74 2265.42L2164.38 2270.25C2161.69 2269.99 1894.27 2245.59 1808.42 2355.3Z" fill="#FCFDFE"/>
<path d="M2089.48 1970.67L2085.11 1968.03C2146.14 1873.77 2098.47 1706.47 2097.98 1704.8L2102.9 1703.63C2103.39 1705.33 2151.64 1874.66 2089.48 1970.67Z" fill="#FCFDFE"/>
<path d="M2273.93 1834.35L2271.86 1829.85C2394.78 1781.62 2565.32 1845.72 2567.03 1846.37L2565.25 1850.87C2563.56 1850.22 2394.93 1786.87 2273.93 1834.35Z" fill="#FCFDFE"/>
</g>
</g>
<path d="M1357.28 2551.74C1609.08 2370.09 1647.66 1977.94 1527.76 1871.05C1465.39 1815.45 1385.96 1860.03 1329.3 1793.51C1266.52 1719.82 1333 1628.67 1324.71 1427.03C1320.43 1322.85 1312.66 1133.93 1203.18 1066.03C1094.61 998.689 994.253 1117.5 873.433 1051.51C759.188 989.109 805.5 859.16 666.39 737.109C653.45 725.757 506.307 599.777 387.245 648.195C266.283 697.385 217.027 909.204 277.934 1043.66C333.271 1165.81 463.275 1188.2 454.891 1259.52C445.651 1338.11 284.75 1336.67 267.506 1416.49C242.581 1531.88 560.572 1619.08 565.762 1801.95C568.815 1909.48 460.228 1927.53 434.551 2062.98C401.411 2237.79 541.601 2422.35 664.325 2515.15C842.18 2649.66 1139.04 2709.19 1357.28 2551.74Z" fill="url(#paint0_linear_331_7406)"/>
<mask id="mask1_331_7406" style="mask-type:luminance" maskUnits="userSpaceOnUse" x="251" y="637" width="1343" height="2009">
<path d="M1357.28 2551.74C1609.08 2370.09 1647.66 1977.94 1527.76 1871.04C1465.39 1815.45 1385.96 1860.02 1329.3 1793.51C1266.52 1719.82 1333 1628.67 1324.71 1427.03C1320.43 1322.85 1312.66 1133.93 1203.18 1066.02C1094.61 998.685 994.253 1117.5 873.433 1051.51C759.188 989.105 805.5 859.156 666.39 737.105C653.45 725.753 506.307 599.773 387.245 648.191C266.283 697.381 217.027 909.201 277.934 1043.65C333.271 1165.8 463.275 1188.2 454.891 1259.52C445.651 1338.11 284.75 1336.66 267.506 1416.49C242.581 1531.87 560.572 1619.07 565.762 1801.94C568.815 1909.47 460.228 1927.53 434.551 2062.97C401.411 2237.78 541.601 2422.34 664.325 2515.15C842.18 2649.65 1139.04 2709.19 1357.28 2551.74Z" fill="white"/>
</mask>
<g mask="url(#mask1_331_7406)">
<g opacity="0.8">
<path d="M1227.5 2721.08L1237.05 2718.69C1144.39 2349.07 1036.32 2005.9 915.825 1698.71C819.408 1452.9 714.866 1229.44 605.102 1034.53C418.054 702.388 278.646 566.471 277.26 565.137L270.436 572.227C271.812 573.555 410.467 708.836 596.877 1039.98C768.938 1345.64 1018.02 1885.41 1227.5 2721.08Z" fill="white"/>
<path d="M621.91 1067C677.843 767.159 580.843 521.91 579.855 519.469L570.73 523.153C571.708 525.57 667.619 768.295 612.235 1065.2L621.91 1067Z" fill="white"/>
<path d="M933.983 1742.39C1093.51 1450.92 1140.69 1243.87 1152.17 1121.5C1164.68 988.215 1139.47 924.928 1138.4 922.301L1129.29 926.032C1129.55 926.661 1154.76 990.401 1142.27 1121.68C1130.73 1242.97 1083.73 1448.3 925.35 1737.67L933.983 1742.39Z" fill="white"/>
<path d="M1151.07 2406.89C1537.37 1973.04 1553.27 1630.9 1553.38 1627.5L1543.55 1627.16C1543.52 1628.02 1539.13 1716.7 1484.97 1859.28C1437.27 1984.84 1339.35 2180.63 1143.73 2400.34L1151.07 2406.89Z" fill="white"/>
<path d="M789.088 1646.34C822.646 1652.22 857.086 1656.38 892.312 1658.43L892.884 1648.6C662.719 1635.22 465.22 1530.59 340.078 1445.18C204.418 1352.58 122.31 1262.1 121.499 1261.2L114.184 1267.79C115.006 1268.7 197.904 1360.05 334.528 1453.3C441.575 1526.37 601.205 1613.39 789.088 1646.34Z" fill="white"/>
<path d="M1054.42 2277.77C1072.54 2280.95 1091.02 2283.54 1109.87 2285.47L1110.87 2275.68C871.758 2251.18 692.221 2120.05 583.703 2014.36C466.031 1899.76 404.282 1789.69 403.671 1788.59L395.066 1793.37C395.685 1794.48 458.141 1905.81 576.837 2021.42C677.93 2119.87 840.11 2240.19 1054.42 2277.77Z" fill="white"/>
</g>
</g>
<path d="M1285.29 2290.58C1052.3 2117.42 1021.44 1750.29 1134.96 1651.95C1194 1600.8 1267.67 1643.53 1321.53 1582.1C1381.19 1514.04 1320.25 1427.94 1330.68 1239.55C1336.07 1142.21 1345.84 965.689 1449.09 903.663C1551.49 842.152 1643.73 954.562 1757.56 894.471C1865.2 837.651 1823.63 715.549 1955.3 603.294C1967.55 592.852 2106.78 477.032 2217.45 523.878C2329.88 571.472 2373.11 770.152 2314.39 895.04C2261.03 1008.5 2139.2 1027.71 2146.09 1094.5C2153.68 1168.1 2304.12 1168.88 2319.18 1243.74C2340.95 1351.94 2042.51 1429.24 2035.23 1600.13C2030.95 1700.62 2132.22 1718.94 2154.43 1845.9C2183.09 2009.77 2049.58 2180.45 1933.61 2265.58C1765.55 2388.96 1487.23 2440.68 1285.29 2290.58Z" fill="url(#paint1_linear_331_7406)"/>
<mask id="mask2_331_7406" style="mask-type:luminance" maskUnits="userSpaceOnUse" x="1071" y="512" width="1270" height="1871">
<path d="M1285.29 2290.58C1052.3 2117.41 1021.44 1750.29 1134.96 1651.95C1194 1600.8 1267.67 1643.53 1321.53 1582.1C1381.19 1514.04 1320.25 1427.94 1330.68 1239.54C1336.07 1142.2 1345.84 965.685 1449.09 903.659C1551.49 842.148 1643.73 954.558 1757.56 894.467C1865.2 837.647 1823.63 715.545 1955.3 603.29C1967.55 592.848 2106.78 477.028 2217.45 523.874C2329.88 571.468 2373.11 770.148 2314.39 895.036C2261.03 1008.5 2139.2 1027.71 2146.09 1094.49C2153.68 1168.09 2304.12 1168.87 2319.18 1243.73C2340.95 1351.93 2042.51 1429.23 2035.23 1600.12C2030.95 1700.61 2132.22 1718.93 2154.43 1845.9C2183.09 2009.77 2049.58 2180.45 1933.61 2265.58C1765.55 2388.96 1487.23 2440.68 1285.29 2290.58Z" fill="white"/>
</mask>
<g mask="url(#mask2_331_7406)">
<path d="M1404.37 2450.62L1395.48 2448.25C1487.01 2103.93 1592.61 1784.55 1709.34 1498.96C1802.74 1270.44 1903.44 1062.92 2008.65 882.16C2187.93 574.131 2320.06 448.916 2321.38 447.688L2327.66 454.407C2326.36 455.63 2194.93 580.26 2016.26 887.364C1851.35 1170.83 1611.32 1672.14 1404.37 2450.62Z" fill="url(#paint2_linear_331_7406)"/>
<path d="M1992.5 912.299C1944.19 631.237 2038.13 403.247 2039.09 400.977L2047.57 404.543C2046.62 406.789 1953.73 632.434 2001.57 910.741L1992.5 912.299Z" fill="url(#paint3_linear_331_7406)"/>
<path d="M1691.78 1539.56C1546.51 1264.95 1505.15 1070.76 1496.04 956.203C1486.12 831.428 1510.53 772.599 1511.57 770.156L1520.04 773.766C1519.79 774.351 1495.37 833.605 1505.3 956.497C1514.48 1070.05 1555.69 1262.63 1699.91 1535.26L1691.78 1539.56Z" fill="url(#paint4_linear_331_7406)"/>
<path d="M1480 2157.9C1124.62 1747.18 1114.3 1427.1 1114.24 1423.92L1123.44 1423.74C1123.46 1424.54 1126.38 1507.5 1175.12 1641.52C1218.04 1759.54 1306.98 1943.88 1486.95 2151.88L1480 2157.9Z" fill="url(#paint5_linear_331_7406)"/>
<path d="M1828.51 1451.69C1797.06 1456.74 1764.81 1460.17 1731.85 1461.62L1731.45 1452.43C1946.8 1442.97 2132.83 1347.78 2250.95 1269.59C2379.01 1184.82 2456.97 1101.33 2457.74 1100.5L2464.5 1106.75C2463.71 1107.59 2385 1191.89 2256.04 1277.26C2154.99 1344.15 2004.6 1423.38 1828.51 1451.69Z" fill="url(#paint6_linear_331_7406)"/>
<path d="M1572.07 2038.48C1555.09 2041.21 1537.78 2043.38 1520.13 2044.93L1519.32 2035.77C1743.19 2016.04 1912.78 1895.84 2015.64 1798.47C2127.17 1692.9 2186.36 1590.82 2186.94 1589.8L2194.92 1594.38C2194.33 1595.41 2134.46 1698.66 2021.96 1805.16C1926.14 1895.86 1772.93 2006.19 1572.07 2038.48Z" fill="url(#paint7_linear_331_7406)"/>
</g>
<path d="M1949.69 933.5L700.886 854.476C672.124 852.94 646.232 887.273 646.232 916.101V2675.1C646.232 2715.08 683.567 2723.12 712.329 2719.91L1949.69 2581.68C1972.29 2579.16 1990.54 2556.53 1990.54 2531.14V981.661C1990.54 956.267 1972.29 934.707 1949.69 933.5Z" fill="#97A6B7"/>
<path d="M1970.23 919.529L718.958 852.197C690.196 850.649 666.771 872.941 666.771 901.995V2674.73C666.771 2703.79 690.196 2724.7 718.958 2721.46L1970.23 2580.59C1992.83 2578.04 2011.08 2555.24 2011.08 2529.65V968.066C2011.08 942.474 1992.83 920.745 1970.23 919.529Z" fill="#D8DEE8"/>
<path opacity="0.74" d="M718.958 2697.42C703.444 2699.14 690.791 2687.8 690.791 2672.14V903.174C690.791 887.518 703.444 875.435 718.958 876.237L1970.23 940.891C1982.45 941.522 1992.37 953.3 1992.37 967.147V2531.67C1992.37 2545.51 1982.45 2557.88 1970.23 2559.22L718.958 2697.42Z" fill="white"/>
<path d="M1889.58 2517.27L819.363 2630.06V998.039L1889.58 1042.13V2517.27Z" fill="white"/>
<path opacity="0.3" d="M1461.53 1050.12L1033.81 1055.97L1043.41 950.456C1044.13 936.747 1053.19 925.492 1065.12 923.487L1137.56 911.311C1146.08 909.878 1153.43 903.712 1157.16 894.858L1165.01 876.199L1354.48 888.996L1461.53 1050.12Z" fill="#97A6B7"/>
<path d="M1689.93 981.665C1687.91 969.727 1679.16 961.349 1668.14 960.809L1599.8 957.458C1568.78 955.937 1546.04 928.371 1547.18 893.455L1549.81 812.543C1550.3 797.58 1540.53 785.589 1527.11 784.712L1504.65 783.245C1487.53 782.126 1476.13 765.615 1478.53 746.523C1482.73 713.158 1461.83 684.363 1431.54 682.106C1401.01 679.83 1372.52 705.342 1367.98 739.134C1367.3 744.155 1365.75 749.117 1363.23 753.545C1356.17 765.922 1343.81 772.736 1331.71 771.946L1308.55 770.433C1294.51 769.516 1281.17 780.291 1277.62 795.452L1258.36 877.583C1250.03 913.103 1218.61 938.771 1185.25 937.135L1110.28 933.459C1098 932.857 1085.95 940.685 1080.29 952.959L1035.12 1051.02C1031.42 1059.05 1035.97 1067.72 1044.04 1068.02L1694.19 1091.64C1701.31 1091.9 1707.35 1084.14 1706.04 1076.42L1689.93 981.665ZM1422.32 752.133C1413.37 751.526 1407.15 743.01 1408.45 733.113C1409.76 723.216 1418.08 715.711 1427.03 716.348C1435.97 716.984 1442.15 725.498 1440.85 735.365C1439.55 745.232 1431.26 752.74 1422.32 752.133Z" fill="url(#paint8_linear_331_7406)"/>
<path d="M1693.78 983.857C1691.75 971.919 1683.01 963.541 1671.99 963.001L1603.65 959.65C1572.63 958.129 1549.89 930.562 1551.03 895.647L1553.66 814.735C1554.15 799.771 1544.38 787.781 1530.96 786.903L1508.5 785.436C1491.38 784.317 1479.98 767.806 1482.38 748.715C1486.58 715.348 1465.68 686.555 1435.39 684.297C1404.86 682.022 1376.37 707.532 1371.83 741.325C1371.15 746.346 1369.6 751.309 1367.08 755.737C1360.02 768.115 1347.66 774.929 1335.56 774.138L1312.4 772.625C1298.36 771.708 1285.02 782.484 1281.47 797.644L1262.21 879.774C1253.88 915.295 1222.46 940.962 1189.1 939.327L1114.13 935.651C1101.85 935.049 1089.8 942.876 1084.14 955.151L1038.96 1053.21C1035.27 1061.24 1039.82 1069.92 1047.88 1070.21L1698.04 1093.83C1705.16 1094.09 1711.2 1086.33 1709.89 1078.62L1693.78 983.857ZM1426.17 754.327C1417.22 753.719 1411 745.203 1412.31 735.307C1413.61 725.41 1421.93 717.904 1430.88 718.541C1439.82 719.178 1446 727.691 1444.7 737.559C1443.4 747.425 1435.11 754.933 1426.17 754.327Z" fill="#97A6B7"/>
<path opacity="0.5" d="M1582.52 1028.92C1524.52 989.757 1480.02 1017.52 1443.88 973.355C1405.18 926.07 1431.28 863.821 1391.24 834.448C1365.61 815.642 1342.75 832.229 1312.94 827.138C1302.02 825.274 1290.37 820.528 1278.27 811.277L1262.21 879.774C1253.88 915.295 1222.46 940.961 1189.1 939.327L1114.13 935.651C1101.85 935.05 1089.8 942.878 1084.14 955.151L1038.96 1053.21C1035.27 1061.24 1039.82 1069.92 1047.88 1070.21L1638.74 1091.68C1623.86 1065.82 1605.37 1044.35 1582.52 1028.92Z" fill="white"/>
<path d="M1056.11 1780.75V1876.06L966.038 1879.39V1783.17L1056.11 1780.75ZM1065.86 1770.74L956.295 1773.69V1889.5L1065.86 1885.45V1770.74Z" fill="#D8DEE8"/>
<path d="M1793.25 1858.59L1106.2 1883.97V1769.66L1793.25 1751.17V1858.59Z" fill="#D8DEE8"/>
<path d="M1056.11 1948.04V2043.35L966.038 2047.99V1951.78L1056.11 1948.04ZM1065.86 1937.89L956.295 1942.43V2058.25L1065.86 2052.6V1937.89Z" fill="#D8DEE8"/>
<path d="M1793.25 2015.12L1106.2 2050.52V1936.21L1793.25 1907.69V2015.12Z" fill="#D8DEE8"/>
<path d="M1056.11 2115.34V2210.63L966.038 2216.58V2120.39L1056.11 2115.34ZM1065.86 2105.03L956.295 2111.18V2226.99L1065.86 2219.75V2105.03Z" fill="#D8DEE8"/>
<path d="M1793.25 2171.64L1106.2 2217.08V2102.77L1793.25 2064.21V2171.64Z" fill="#D8DEE8"/>
<path d="M1056.11 2282.63V2377.9L966.038 2385.18V2289L1056.11 2282.63ZM1065.86 2272.18L956.295 2279.92V2395.74L1065.86 2386.89V2272.18Z" fill="#D8DEE8"/>
<path d="M1793.25 2328.16L1106.2 2383.63V2269.32L1793.25 2220.73V2328.16Z" fill="#D8DEE8"/>
<path d="M960.357 1682.08C959.371 1682.08 958.423 1681.69 957.721 1681C957 1680.29 956.594 1679.32 956.594 1678.31V1260.88C956.594 1259.86 957.007 1258.89 957.735 1258.18C958.466 1257.47 959.39 1257.07 960.467 1257.12L1296.94 1266.93C1298.97 1266.99 1300.59 1268.66 1300.59 1270.69V1672.39C1300.59 1674.44 1298.95 1676.11 1296.9 1676.15L960.423 1682.08C960.402 1682.08 960.378 1682.08 960.357 1682.08ZM964.12 1264.75V1674.48L1293.07 1668.69V1274.35L964.12 1264.75Z" fill="#D8DEE8"/>
<path d="M1747.16 1344.48L1341.44 1336.87V1269.15L1747.16 1278.81V1344.48Z" fill="#D8DEE8"/>
<path d="M1747.16 1491.52L1341.44 1488.42V1454.31L1747.16 1458.44V1491.52Z" fill="#D8DEE8"/>
<path d="M1747.16 1545.98L1341.44 1544.57V1510.58L1747.16 1513.02V1545.98Z" fill="#D8DEE8"/>
<path d="M1747.16 1600.17L1341.44 1600.44V1566.86L1747.16 1567.6V1600.17Z" fill="#D8DEE8"/>
<path d="M973.477 1663.46V1503.4L1022.46 1495.67L1231.71 1493.44L1284.65 1502.95V1658.49L973.477 1663.46Z" fill="#D8DEE8"/>
<path d="M1139.46 1393.56C1141.88 1418.14 1144.29 1442.71 1146.71 1467.26C1147.37 1473.91 1152.34 1479.14 1158.56 1479.72C1183.08 1482 1210.01 1494.1 1234.25 1496.34L1123.09 1531.04L1025.01 1498.56C1051.46 1494.53 1070.72 1486.07 1090.14 1479.77C1095.11 1478.16 1098.71 1473.58 1099.31 1468.09C1101 1452.87 1102.68 1437.66 1104.36 1422.45L1139.46 1393.56Z" fill="white"/>
<path d="M1123.09 1534.81C1122.69 1534.81 1122.29 1534.74 1121.9 1534.62L1023.82 1502.13C1022.17 1501.59 1021.11 1499.98 1021.26 1498.24C1021.4 1496.51 1022.72 1495.11 1024.44 1494.84C1044.16 1491.84 1059.72 1486.36 1074.76 1481.07C1079.64 1479.35 1084.25 1477.73 1088.98 1476.19C1092.54 1475.04 1095.13 1471.69 1095.58 1467.68L1100.62 1422.04C1100.73 1421.06 1101.21 1420.17 1101.97 1419.55L1137.07 1390.65C1138.14 1389.77 1139.61 1389.55 1140.9 1390.08C1142.18 1390.61 1143.07 1391.81 1143.2 1393.19L1150.46 1466.89C1150.93 1471.74 1154.49 1475.56 1158.91 1475.98C1171.53 1477.15 1184.78 1480.86 1197.59 1484.44C1210.01 1487.91 1222.84 1491.51 1234.6 1492.59C1236.39 1492.75 1237.81 1494.16 1238 1495.94C1238.18 1497.72 1237.09 1499.39 1235.38 1499.93L1124.21 1534.63C1123.84 1534.75 1123.46 1534.81 1123.09 1534.81ZM1039.97 1499.56L1123.12 1527.09L1217.93 1497.49C1210.48 1495.86 1202.95 1493.76 1195.57 1491.69C1183.07 1488.19 1170.16 1484.58 1158.21 1483.47C1150.21 1482.72 1143.8 1476.06 1142.97 1467.63L1136.4 1400.95L1107.93 1424.39L1103.05 1468.5C1102.28 1475.45 1097.67 1481.28 1091.3 1483.35C1086.66 1484.86 1082.09 1486.46 1077.26 1488.17C1065.69 1492.24 1053.83 1496.41 1039.97 1499.56Z" fill="#D8DEE8"/>
<path d="M1165.99 1391.26C1165.99 1427.2 1146.83 1469.24 1123.09 1469.1C1099.22 1468.95 1079.77 1426.27 1079.77 1389.97C1079.77 1353.67 1099.22 1337.78 1123.09 1338.28C1146.83 1338.78 1165.99 1355.31 1165.99 1391.26Z" fill="white"/>
<path d="M1123.21 1472.86C1123.16 1472.86 1123.11 1472.86 1123.07 1472.86C1096.56 1472.7 1076 1428.17 1076 1389.97C1076 1371.11 1081.21 1356.03 1091.07 1346.38C1099.27 1338.35 1110.39 1334.25 1123.17 1334.52C1157.51 1335.24 1169.75 1364.3 1169.75 1391.26C1169.75 1418.61 1159.35 1448.05 1144.47 1462.85C1137.78 1469.49 1130.63 1472.86 1123.21 1472.86ZM1122 1342.03C1111.7 1342.03 1102.84 1345.38 1096.34 1351.75C1087.96 1359.96 1083.53 1373.17 1083.53 1389.97C1083.53 1423.79 1101.79 1465.21 1123.11 1465.33C1128.61 1465.36 1133.91 1462.73 1139.16 1457.51C1152.53 1444.22 1162.23 1416.36 1162.23 1391.26C1162.23 1360.95 1147.57 1342.55 1123.01 1342.04C1122.67 1342.03 1122.34 1342.03 1122 1342.03Z" fill="#D8DEE8"/>
<path d="M970.191 1828.84C970.191 1828.84 1000.25 1853.96 1006.04 1869.42C1006.53 1870.1 1016 1867.82 1017.09 1868.28C1020.46 1861.5 1025.73 1843 1039.6 1821.68C1057.77 1793.76 1079.12 1766.71 1079.48 1766.37C1079.5 1766.35 1079.64 1766.23 1079.66 1766.07C1079.8 1765.2 1076.28 1763.71 1075.71 1764.26C1072.05 1767.87 1050.72 1788.78 1033.4 1810.32C1018.82 1828.43 1007.53 1848.01 1007.53 1848.01C1007.53 1848.01 978.799 1825.82 974.917 1824.54C973.342 1825.97 971.766 1827.41 970.191 1828.84Z" fill="url(#paint9_linear_331_7406)"/>
<path d="M970.191 2002.59C970.191 2002.59 1000.25 2027.71 1006.04 2043.17C1006.53 2043.85 1016 2041.57 1017.09 2042.03C1020.46 2035.25 1025.73 2016.75 1039.6 1995.43C1057.77 1967.51 1079.12 1940.46 1079.48 1940.12C1079.5 1940.1 1079.64 1939.98 1079.66 1939.82C1079.8 1938.95 1076.28 1937.46 1075.71 1938.01C1072.05 1941.62 1050.72 1962.53 1033.4 1984.07C1018.82 2002.18 1007.53 2021.76 1007.53 2021.76C1007.53 2021.76 978.799 1999.57 974.917 1998.29C973.342 1999.72 971.766 2001.16 970.191 2002.59Z" fill="url(#paint10_linear_331_7406)"/>
<path d="M970.191 2178.02C970.191 2178.02 1000.25 2203.13 1006.04 2218.59C1006.53 2219.27 1016 2216.99 1017.09 2217.46C1020.46 2210.67 1025.73 2192.17 1039.6 2170.85C1057.77 2142.93 1079.12 2115.88 1079.48 2115.54C1079.5 2115.52 1079.64 2115.41 1079.66 2115.24C1079.8 2114.37 1076.28 2112.88 1075.71 2113.43C1072.05 2117.04 1050.72 2137.95 1033.4 2159.49C1018.82 2177.61 1007.53 2197.18 1007.53 2197.18C1007.53 2197.18 978.799 2174.99 974.917 2173.71C973.342 2175.14 971.766 2176.58 970.191 2178.02Z" fill="url(#paint11_linear_331_7406)"/>
<path d="M970.191 2336.88C970.191 2336.88 1000.25 2361.99 1006.04 2377.45C1006.53 2378.13 1016 2375.86 1017.09 2376.32C1020.46 2369.54 1025.73 2351.03 1039.6 2329.72C1057.77 2301.79 1079.12 2274.74 1079.48 2274.4C1079.5 2274.38 1079.64 2274.27 1079.66 2274.11C1079.8 2273.23 1076.28 2271.74 1075.71 2272.3C1072.05 2275.9 1050.72 2296.82 1033.4 2318.35C1018.82 2336.47 1007.53 2356.04 1007.53 2356.04C1007.53 2356.04 978.799 2333.86 974.917 2332.57C973.342 2334.01 971.766 2335.44 970.191 2336.88Z" fill="url(#paint12_linear_331_7406)"/>
<path d="M2011.91 2126.08C2011.91 2126.08 2059.59 2142.17 2064.66 2225.31C2056.86 2224.66 2038.68 2225.31 2038.68 2225.31C2038.68 2225.31 2042.05 2164.85 2008.13 2153.1C2010.86 2146.05 2011.91 2126.08 2011.91 2126.08Z" fill="url(#paint13_linear_331_7406)"/>
<path d="M1836.95 2121.09C1838.14 2136.23 1839.33 2151.36 1840.52 2166.5C1864.08 2159.7 1889.85 2151.82 1917.56 2150.37C1953.58 2148.48 1986.59 2152.68 2015.99 2159.97C2017.3 2158.06 2020.07 2153.47 2021.35 2145.98C2023.41 2133.92 2019.96 2123.91 2019.32 2122.13C2004.34 2116.57 1988.1 2111.91 1970.7 2108.74C1920.79 2099.64 1875.7 2108.67 1836.95 2121.09Z" fill="url(#paint14_linear_331_7406)"/>
<path d="M1834.73 2134.21C1834.8 2128.73 1835.19 2121.89 1836.95 2121.09C1838.61 2120.33 1840.83 2125.28 1841.79 2128.03C1842.19 2129.18 1843.06 2131.95 1843.61 2140.79C1844.32 2152.18 1843.5 2157.76 1842.74 2161.21C1842.28 2163.28 1841.58 2166.42 1840.52 2166.5C1839.67 2166.56 1838.93 2164.58 1837.83 2160.74C1836.35 2155.57 1834.57 2146.94 1834.73 2134.21Z" fill="url(#paint15_linear_331_7406)"/>
<path d="M1791.3 2229.86C1801.18 2231.82 1825.2 2237.67 1825.2 2237.67C1825.2 2237.67 1809.54 2184.5 1839.07 2159.95C1839.84 2155.93 1840.61 2149.56 1839.68 2141.89C1838.96 2135.96 1837.45 2131.22 1836.15 2127.94C1823.61 2135.44 1796.32 2160.65 1791.3 2229.86Z" fill="url(#paint16_linear_331_7406)"/>
<path d="M1586.97 2243.87C1586.97 2243.87 1588.18 2215.94 1629.38 2215.94C1635.87 2221.03 1636.19 2243.87 1636.19 2243.87H1586.97Z" fill="url(#paint17_linear_331_7406)"/>
<path d="M1550.39 2792.86L1663.14 2866.46L1731.45 2596.16L1618.89 2233.78L1586.97 2243.87L1538.54 2764.31C1537.44 2776.09 1542.18 2787.5 1550.39 2792.86Z" fill="url(#paint18_linear_331_7406)"/>
<path opacity="0.3" d="M1731.46 2596.16L1618.89 2233.78L1586.97 2243.87C1594.83 2275.85 1598.6 2327.93 1600.37 2356.93C1607.92 2480.3 1632.98 2514.64 1620.84 2600.71C1610.74 2672.28 1588.7 2681.99 1590.62 2730.14C1592.72 2782.58 1621.09 2826.49 1654.82 2861.03L1663.14 2866.46L1731.46 2596.16Z" fill="url(#paint19_linear_331_7406)"/>
<path d="M1618.89 2233.78H2237.99L2335.46 2808.18L1663.14 2866.46L1618.89 2233.78Z" fill="url(#paint20_linear_331_7406)"/>
<g opacity="0.2">
<path d="M2237.99 2233.78H2029.43C2025.59 2245.55 2019.72 2261.83 2011.15 2280.26C1917.87 2480.76 1704.35 2506.02 1708.21 2538.97C1713.98 2588.23 2189.45 2518.32 2201.59 2585.99C2207.45 2618.66 2107.05 2692.93 2002.13 2721.05C1876.5 2754.71 1784.19 2712.28 1722.79 2787.93C1702 2813.54 1692.82 2843.55 1688.35 2863.84L2335.46 2808.19L2237.99 2233.78Z" fill="url(#paint21_linear_331_7406)"/>
</g>
<path d="M1629.38 2215.94C1622.4 2215.94 1612.65 2215.01 1602.05 2221.72C1599.78 2223.15 1597.78 2224.73 1596.03 2226.33L1600.91 2224.46C1608.77 2221.98 1619.6 2225.28 1623.64 2233.78C1628.61 2244.22 1630.4 2268.38 1631.49 2280.35C1634.58 2314.4 1653.58 2526.25 1653.58 2526.25C1655 2544.11 1667.58 2557.64 1682.45 2557.29L2258.34 2524.99C2262.71 2524.89 2267.03 2523.42 2270.64 2520.44C2278.17 2514.21 2281.57 2503.42 2279.82 2493.16L2250.65 2240.85C2248.18 2226.35 2237.61 2215.94 2225.34 2215.94H1629.38V2215.94Z" fill="url(#paint22_linear_331_7406)"/>
<path d="M1635.54 2215.94C1628.57 2215.94 1620.3 2214.91 1611.08 2217.58C1608.59 2218.3 1604.61 2219.62 1602.86 2221.22C1602.86 2221.22 1622.4 2216.19 1629.81 2233.78C1634.32 2244.51 1636.57 2268.38 1637.65 2280.35C1640.74 2314.4 1659.74 2526.25 1659.74 2526.25C1661.17 2544.11 1673.75 2557.64 1688.61 2557.29L2270.99 2543.79C2275.36 2543.69 2279.68 2542.22 2283.29 2539.23C2290.82 2533.01 2294.22 2522.21 2292.48 2511.95L2256.81 2240.85C2254.35 2226.35 2243.77 2215.94 2231.5 2215.94H1635.54Z" fill="url(#paint23_linear_331_7406)"/>
<path opacity="0.1" d="M2292.48 2511.95L2256.81 2240.85C2254.34 2226.35 2243.77 2215.94 2231.5 2215.94H1635.54C1628.57 2215.94 1620.3 2214.91 1611.08 2217.58C1608.59 2218.3 1604.61 2219.62 1602.86 2221.22C1602.86 2221.22 1622.4 2216.19 1629.81 2233.78C1630.52 2235.47 1631.17 2237.51 1631.77 2239.76C1688.37 2242.18 1744.96 2240.44 1801.56 2244.38C1913.44 2251.96 2026.58 2251.96 2132.18 2300.52C2165.95 2316.05 2189.11 2371.84 2179.95 2397.62C2173.34 2416.21 2150.79 2414.74 2142.92 2439.13C2134.65 2464.78 2154.49 2482.21 2146.17 2500.21C2137.44 2519.08 2110.95 2510.09 2068.06 2523.56C2044.44 2530.98 2026.31 2541.92 2014.99 2549.72L2270.99 2543.79C2275.36 2543.69 2279.68 2542.22 2283.29 2539.23C2290.82 2533.01 2294.22 2522.21 2292.48 2511.95Z" fill="url(#paint24_linear_331_7406)"/>
<path d="M2013.77 2594.26L1940.84 2613.11L1933.14 2613.79C1925.38 2614.47 1918.7 2607.27 1918.36 2597.78L1915.16 2508.06C1914.83 2498.57 1920.97 2490.7 1928.75 2490.57L1936.49 2490.45L2009.8 2500.46C2016.8 2500.35 2022.7 2496.35 2023.01 2505.25L2026.02 2589.39C2026.33 2598.29 2020.75 2593.65 2013.77 2594.26Z" fill="url(#paint25_linear_331_7406)"/>
<path d="M2019.31 2606.69L1938.52 2613.79C1930.76 2614.47 1924.08 2607.27 1923.74 2597.78L1920.54 2508.06C1920.2 2498.57 1926.34 2490.7 1934.12 2490.58L2015.13 2489.27C2022.13 2489.16 2028.07 2496.35 2028.39 2505.25L2031.39 2589.39C2031.71 2598.29 2026.3 2606.07 2019.31 2606.69Z" fill="url(#paint26_linear_331_7406)"/>
<path d="M1128.85 1473.79C1128.85 1473.79 1129.43 1443.65 1143.35 1438.99C1157.27 1434.32 1204.61 1397.68 1201.78 1411.97C1198.95 1426.25 1178.25 1437.24 1178.25 1437.24C1178.25 1437.24 1195.69 1458.95 1173.49 1471.66C1151.29 1484.37 1109.14 1526.89 1128.85 1473.79Z" fill="url(#paint27_linear_331_7406)"/>
<path d="M1123.4 1465.36C1133.95 1478.15 1144.51 1490.92 1155.07 1503.7C1148.55 1532.35 1136.34 1572.47 1112.08 1616.02C1101.39 1635.23 1067.9 1691.8 1006.24 1741C922.292 1807.97 763.919 1879 709.371 1823.08C660.698 1773.18 716.996 1645.07 727.423 1622.03C754.496 1631.37 719.108 1601.94 853.446 1640.86C870.729 1645.87 918.187 1638.08 968.81 1616.41C1062.5 1576.33 1108.26 1495.49 1123.4 1465.36Z" fill="url(#paint28_linear_331_7406)"/>
<path d="M749.996 2924.18C749.996 2924.18 745.992 2948.69 746.502 2957.41C747.01 2966.14 843.824 2970.6 844.803 2964.06C845.78 2957.53 828.8 2947.13 816.849 2943.47C804.897 2939.8 769.916 2930.01 769.916 2930.01L749.996 2924.18Z" fill="url(#paint29_linear_331_7406)"/>
<path d="M773.498 2899.74L770.41 2930.22C770.41 2930.22 759.164 2937.65 749.255 2931.91L744.297 2898.73L773.498 2899.74Z" fill="url(#paint30_linear_331_7406)"/>
<path d="M577.264 2963.91C577.264 2963.91 573.258 2988.43 573.767 2997.15C574.277 3005.88 671.092 3010.34 672.069 3003.8C673.048 2997.27 656.066 2986.87 644.115 2983.2C632.164 2979.54 597.184 2969.75 597.184 2969.75L577.264 2963.91Z" fill="url(#paint31_linear_331_7406)"/>
<path d="M600.764 2939.47L597.675 2969.96C597.675 2969.96 586.43 2977.39 576.52 2971.65L571.562 2938.47L600.764 2939.47Z" fill="url(#paint32_linear_331_7406)"/>
<path d="M755.927 2103.98C767.118 2126.67 778.309 2149.36 789.5 2172.05C798.5 2301.52 802.973 2442.31 800.1 2592.87C797.964 2704.89 791.976 2811 783.377 2910.61C768.204 2909.92 753.031 2909.22 737.858 2908.53C715.917 2864.98 690.017 2799.01 687.634 2717.57C685.147 2632.63 710.9 2621.35 709.267 2540.02C707.149 2434.6 662.945 2406.48 639.394 2279.68C630.389 2231.19 624.325 2167.85 631.532 2091.01C672.999 2095.33 714.462 2099.66 755.927 2103.98Z" fill="url(#paint33_linear_331_7406)"/>
<path opacity="0.3" d="M631.532 2091.01C653.926 2093.34 676.319 2095.68 698.713 2098.02C739.023 2168.17 750.278 2241.18 743.204 2273.48C733.197 2319.17 706.723 2333.81 708.178 2379.68C709.618 2425.08 736.363 2436.85 753.329 2490.35C765.073 2527.39 761.973 2561.45 755.292 2628.06C741.836 2762.23 709.438 2803.26 736.576 2847.25C744.288 2859.74 758.181 2874.63 785.402 2885.99C784.736 2894.22 784.08 2902.48 783.377 2910.61C768.204 2909.92 753.031 2909.22 737.858 2908.53C715.917 2864.98 690.017 2799.01 687.634 2717.58C685.147 2632.63 710.899 2621.35 709.267 2540.02C707.149 2434.6 662.945 2406.48 639.394 2279.68C630.389 2231.19 624.325 2167.85 631.532 2091.01Z" fill="url(#paint34_linear_331_7406)"/>
<path d="M695.722 2144.83C674.716 2259.38 656.161 2381.98 641.683 2511.99C624.204 2668.98 614.875 2816.98 611.207 2954.39C594.553 2954.86 577.9 2955.33 561.246 2955.81C495.622 2825.98 491.613 2737.96 501.074 2680.66C504.72 2658.58 514.623 2615.28 516.884 2550.56C518.458 2505.46 515.581 2471.13 511.986 2429.86C504.106 2339.38 494.541 2319.62 493.167 2250.42C491.875 2185.46 491.609 2152.6 510.15 2133.41C559.001 2082.87 686.082 2140.36 695.722 2144.83Z" fill="url(#paint35_linear_331_7406)"/>
<path d="M802.246 2195.28C818.203 2168.8 798.161 2143.26 793.599 2093.1C788.429 2036.25 810.329 2026.79 831.988 1932.57C846.392 1869.91 860.219 1809.76 843.715 1739.34C835.806 1705.6 822.392 1648.36 775.022 1620.71C750.577 1606.45 717.201 1607.87 651.446 1611.32C570.132 1615.57 529.476 1617.69 499.155 1633.66C494.716 1636 402.473 1686.17 396.124 1767.96C389.661 1851.2 480.313 1862.38 492.404 1973.39C497.832 2023.22 488.156 2099.86 481.882 2149.57C475.858 2197.3 471.712 2209.52 481.132 2223.97C503.834 2258.8 573.338 2248.88 712.345 2229.03C766.87 2221.24 790.34 2215.03 802.246 2195.28Z" fill="url(#paint36_linear_331_7406)"/>
<path opacity="0.2" d="M590.746 1955.53C584.868 1977.16 563.729 1993.32 549.013 2045.95C545.837 2057.31 523.208 2138.22 552.56 2158.14C569.515 2169.64 584.735 2147.85 625.883 2145C697.187 2140.07 731.154 2200 777.731 2183.63C785.812 2180.79 796.482 2174.74 807.133 2160.83C809.254 2173.36 808.89 2184.25 802.247 2195.27C790.34 2215.03 766.872 2221.24 712.345 2229.02C573.337 2248.87 503.834 2258.8 481.132 2223.97C471.712 2209.52 475.858 2197.3 481.882 2149.57C488.156 2099.86 497.832 2023.22 492.404 1973.39C480.314 1862.38 389.661 1851.19 396.124 1767.95C397.852 1745.7 406.038 1725.89 416.983 1708.64C531.981 1755.18 609.222 1887.54 590.746 1955.53Z" fill="url(#paint37_linear_331_7406)"/>
<path d="M445.496 2119.27L468.504 2133.96C472.636 2129.19 482.2 2119.57 497.133 2116.28C513.959 2112.58 533.272 2117.89 533.721 2123.25C534.081 2127.56 522.321 2131.89 520.503 2132.57C505.823 2137.98 494.932 2133.48 488.996 2139.39C486.898 2141.47 484.281 2145.35 478.266 2148.95C476.687 2149.9 475.031 2150.73 474.159 2151.07C464.362 2154.88 447.554 2137.82 446.109 2136.33L445.496 2119.27Z" fill="url(#paint38_linear_331_7406)"/>
<path d="M513.471 1817.51C530.116 1777.64 542.903 1716.96 516.616 1626.32C343.393 1694.58 253.795 1856.03 288.291 1984.3C316.725 2090.04 420.176 2141.55 443.255 2152.38C448.623 2140.16 453.995 2127.94 459.364 2115.72C432.621 2085.94 402.483 2041.9 406.747 1991.65C412.652 1921.99 479.774 1898.21 513.471 1817.51Z" fill="url(#paint39_linear_331_7406)"/>
<path d="M647.188 1529.31C647.188 1529.31 645.82 1559.61 636.413 1582.3C627.913 1602.81 583.204 1615.7 574.141 1620.28C565.078 1624.86 591.12 1638.24 617.273 1640.87C643.425 1643.5 718.109 1637.56 731.572 1627.65C745.036 1617.73 720.754 1618.48 702.087 1611.63C683.421 1604.77 672.628 1568.27 675.923 1551.7C679.217 1535.13 647.188 1529.31 647.188 1529.31Z" fill="url(#paint40_linear_331_7406)"/>
<path d="M688.549 1518.32C702.118 1504.99 704.012 1503.43 705.491 1498.82C711.422 1480.33 697.075 1455 678.259 1448.76C677.279 1448.44 664.661 1444.4 659.844 1449.87C655.753 1454.52 661.771 1460.94 658.91 1469.9C656.23 1478.29 648.958 1478.92 635.48 1489.92C624.377 1498.98 617.478 1504.61 615.886 1512.54C612.603 1528.87 632.376 1552.54 649.88 1551.9C656.174 1551.67 657.885 1548.45 688.549 1518.32Z" fill="url(#paint41_linear_331_7406)"/>
<path d="M651.592 1554.42C651.592 1554.42 666.017 1570.75 687.99 1565.35C707.664 1560.52 702.644 1515.37 688.246 1508.15C683.444 1505.75 674.716 1505.95 668.153 1509.11C664.275 1510.98 663.198 1512.92 656.803 1515.85C650.906 1518.55 649.037 1518.17 647.451 1520.08C645.466 1522.46 644.612 1527.58 650.83 1539.93C646.349 1536.76 641.528 1536.1 638.57 1538.2C638.098 1538.53 636.896 1539.7 636.378 1541.25C634.503 1546.84 640.317 1552.53 651.592 1554.42Z" fill="url(#paint42_linear_331_7406)"/>
<path d="M689.365 1637.82C686.697 1643.88 683.666 1650.13 680.279 1656.55C678.718 1659.48 677.153 1662.35 675.591 1665.11C669.142 1665.99 662.695 1666.91 656.246 1667.78C652.373 1658.99 648.496 1650.13 644.623 1641.31C649.149 1641.15 653.903 1640.92 658.788 1640.59C661.459 1640.66 664.257 1640.59 667.158 1640.43C672.399 1640.1 677.221 1639.49 681.552 1638.7C684.188 1638.44 686.793 1638.12 689.365 1637.82Z" fill="url(#paint43_linear_331_7406)"/>
<path d="M675.391 1663.32C675.391 1663.32 697.572 1880.42 765.878 1914.34C764.229 1921.32 766.702 1977.84 766.702 1977.84C766.702 1977.84 703.202 1959.62 699.612 1960.92C696.023 1962.23 621.451 1842.17 656.238 1667.79L675.391 1663.32Z" fill="url(#paint44_linear_331_7406)"/>
<path d="M1931.15 1861.19C1911.06 1861.77 1891.46 1856.71 1874.48 1846.53C1822.75 1815.52 1746.32 1764.32 1677.56 1697.29C1590.3 1612.23 1540.17 1525.77 1529.2 1440.87L1529.03 1439.53L1526.9 1077.26C1526.9 1005.66 1573.6 947.545 1661.27 909.356C1733.71 877.805 1829.72 862.171 1931.15 865.107C2031.4 868.009 2124.16 888.693 2192.82 923.158C2274.44 964.129 2317.26 1021.71 2317.26 1089.97L2315.32 1436.12L2315.16 1437.4C2305.14 1518.7 2259.01 1602.74 2177.49 1687.72C2112.09 1755.88 2038.2 1809.9 1987.45 1843.37C1970.67 1854.44 1951.2 1860.61 1931.15 1861.19Z" fill="url(#paint45_linear_331_7406)"/>
<path d="M1951.04 1861.19C1931.21 1861.77 1911.87 1856.71 1895.12 1846.53C1844.08 1815.52 1768.65 1764.32 1700.8 1697.29C1614.7 1612.23 1565.23 1525.77 1554.4 1440.87L1554.24 1439.53L1552.13 1077.26C1552.13 1005.66 1598.22 947.545 1684.73 909.356C1756.21 877.805 1850.96 862.171 1951.04 865.107C2049.97 868.009 2141.5 888.693 2209.26 923.158C2289.79 964.129 2332.05 1021.71 2332.05 1089.97L2330.14 1436.12L2329.98 1437.4C2320.09 1518.7 2274.57 1602.74 2194.13 1687.72C2129.6 1755.88 2056.68 1809.9 2006.6 1843.37C1990.04 1854.44 1970.83 1860.61 1951.04 1861.19Z" fill="url(#paint46_linear_331_7406)"/>
<path d="M1578.75 1077.52L1580.87 1437.96C1604.59 1621.87 1820.73 1770.77 1914.86 1827.34C1941.83 1843.55 1976.3 1842.59 2003.08 1824.97C2095.25 1764.32 2299.55 1611.63 2321.37 1434.81L2323.31 1089.61C2323.31 833.497 1578.75 810.083 1578.75 1077.52Z" fill="url(#paint47_linear_331_7406)"/>
<g opacity="0.3">
<path d="M1958.71 1543.93C1973.37 1382.22 2058.17 1314.13 2052.39 1169.18C2048.19 1063.73 1998.1 969.356 1926.85 887.023C1748.14 887.613 1576.05 948.948 1576.05 1077.52L1578.17 1437.96C1601.9 1621.87 1818.03 1770.77 1912.16 1827.34C1939.13 1843.55 1973.61 1842.59 2000.38 1824.97C2002.47 1823.59 2004.63 1822.15 2006.83 1820.69C1960.81 1712.15 1951.82 1619.85 1958.71 1543.93Z" fill="white"/>
</g>
<path d="M1956.39 1771.79C1954.66 1771.83 1952.05 1771.54 1949.41 1769.94C1910.65 1746.47 1835.52 1697.31 1770.15 1633.1C1699.55 1563.75 1658.83 1496.32 1649.5 1433L1647.42 1078.52C1647.51 1044.51 1674.43 1015.4 1727.21 992.106C1786.13 966.104 1869.79 952.459 1956.39 954.516C2042.11 956.551 2123.34 973.809 2179.61 1001.73C2229.39 1026.43 2254.56 1055.55 2254.64 1088.39L2252.71 1430.59C2243.99 1491.87 2205.77 1557.94 2138.67 1627.38C2075.58 1692.68 2001.88 1744.44 1963.35 1769.61C1960.72 1771.33 1958.11 1771.75 1956.39 1771.79Z" fill="url(#paint48_linear_331_7406)"/>
<path d="M1947.54 1747.55C1908.4 1723.45 1838.8 1676.89 1778.07 1617.13C1711.72 1551.83 1673.32 1489.17 1664.29 1431.19L1662.24 1078.77C1662.3 1054.45 1684.65 1032.15 1728.51 1012.73C1784.32 988.017 1864.28 974.995 1947.54 976.864C2030 978.716 2107.72 995.002 2161.13 1021.43C2202.63 1041.96 2223.63 1064.36 2223.68 1088.08L2221.76 1429.02C2213.29 1485.28 2177.07 1546.8 2113.74 1612.22C2054.94 1672.97 1986.51 1721.81 1947.54 1747.55Z" fill="url(#paint49_linear_331_7406)"/>
<path opacity="0.8" d="M1926.88 1562.74C1911.31 1563.75 1896.83 1556.51 1888.77 1543.57L1753.4 1326.2C1740.72 1305.83 1747.55 1277.93 1768.66 1263.89C1789.75 1249.85 1817.13 1254.98 1829.8 1275.34L1923.68 1426.23L2047.55 1173.95C2058.66 1151.31 2085.37 1140.93 2107.18 1150.75C2128.99 1160.56 2137.67 1186.86 2126.57 1209.48L1966.5 1535.76C1959.17 1550.7 1944.59 1560.98 1928.45 1562.6C1927.93 1562.66 1927.41 1562.7 1926.88 1562.74Z" fill="white"/>
<g opacity="0.3">
<path d="M1958.71 1543.94C1973.37 1382.22 2058.17 1314.14 2052.39 1169.18C2049.69 1101.26 2027.92 1037.93 1993.75 979.448C1978.6 978.091 1963.16 977.219 1947.54 976.868C1864.28 974.998 1784.32 988.02 1728.51 1012.73C1684.65 1032.15 1662.3 1054.46 1662.24 1078.78L1664.3 1431.19C1673.32 1489.17 1711.72 1551.83 1778.07 1617.13C1838.8 1676.9 1908.4 1723.45 1947.54 1747.56C1955.59 1742.24 1964.95 1735.88 1975.17 1728.69C1956.87 1659.01 1953.86 1597.41 1958.71 1543.94Z" fill="white"/>
</g>
<path d="M1046.14 1137.56L1015.7 1136.49C1015.58 1133.96 1015.08 1131.66 1014.22 1129.57C1013.39 1127.49 1012.19 1125.68 1010.62 1124.15C1009.09 1122.58 1007.21 1121.36 1004.97 1120.49C1002.73 1119.59 1000.17 1119.08 997.296 1118.98C992.259 1118.8 987.952 1119.88 984.376 1122.2C980.836 1124.53 978.086 1127.94 976.126 1132.45C974.202 1136.96 973.128 1142.41 972.903 1148.82C972.665 1155.58 973.365 1161.28 975.004 1165.91C976.68 1170.51 979.204 1174.02 982.577 1176.45C985.952 1178.84 990.068 1180.11 994.926 1180.29C997.696 1180.38 1000.19 1180.13 1002.41 1179.52C1004.63 1178.88 1006.57 1177.92 1008.24 1176.65C1009.9 1175.37 1011.27 1173.82 1012.35 1171.98C1013.46 1170.11 1014.24 1167.99 1014.68 1165.63L1045.11 1166.92C1044.59 1171.58 1043.11 1176.3 1040.67 1181.08C1038.23 1185.82 1034.86 1190.17 1030.54 1194.13C1026.26 1198.05 1021.01 1201.14 1014.81 1203.41C1008.61 1205.68 1001.46 1206.67 993.36 1206.39C983.213 1206.03 974.186 1203.53 966.279 1198.89C958.408 1194.26 952.283 1187.63 947.902 1179.01C943.558 1170.39 941.6 1159.97 942.03 1147.73C942.463 1135.43 945.202 1125.15 950.247 1116.89C955.294 1108.61 961.923 1102.44 970.135 1098.41C978.348 1094.34 987.42 1092.48 997.351 1092.83C1004.33 1093.07 1010.72 1094.25 1016.52 1096.36C1022.32 1098.48 1027.36 1101.45 1031.66 1105.27C1035.96 1109.06 1039.36 1113.67 1041.87 1119.09C1044.39 1124.51 1045.81 1130.66 1046.14 1137.56ZM1057.33 1207.12L1061.21 1096.58L1091.22 1097.64L1088.19 1184L1132.88 1185.57L1132.03 1209.75L1057.33 1207.12ZM1172.87 1211.18L1140.49 1210.04L1180.86 1100.79L1221.88 1102.23L1254.48 1214.05L1222.09 1212.91L1200.73 1131.97L1199.87 1131.94L1172.87 1211.18ZM1168.36 1167.36L1229.24 1169.5L1228.45 1191.95L1167.57 1189.81L1168.36 1167.36ZM1299.02 1104.94L1295.13 1215.48L1265.12 1214.42L1269.01 1103.89L1299.02 1104.94ZM1313.24 1105.44L1350.59 1106.76L1374.08 1170.27L1375.37 1170.31L1403.27 1108.61L1440.62 1109.92L1436.73 1220.46L1407.37 1219.42L1409.62 1155.52L1408.75 1155.49L1381.92 1217.66L1364.22 1217.04L1341.84 1152.71L1340.98 1152.67L1338.72 1217.01L1309.36 1215.98L1313.24 1105.44Z" fill="#FC7AA8"/>
<defs>
<linearGradient id="paint0_linear_331_7406" x1="1274.61" y1="1009.61" x2="-1086.41" y2="4491.11" gradientUnits="userSpaceOnUse">
<stop offset="0.0036" stop-color="#E38DDD"/>
<stop offset="1" stop-color="#9571F6"/>
</linearGradient>
<linearGradient id="paint1_linear_331_7406" x1="928.308" y1="1924.04" x2="5223.38" y2="-156.379" gradientUnits="userSpaceOnUse">
<stop stop-color="#FFC444"/>
<stop offset="0.9964" stop-color="#F36F56"/>
</linearGradient>
<linearGradient id="paint2_linear_331_7406" x1="919.6" y1="1906.05" x2="5214.67" y2="-174.366" gradientUnits="userSpaceOnUse">
<stop stop-color="#FFC444"/>
<stop offset="0.9964" stop-color="#F36F56"/>
</linearGradient>
<linearGradient id="paint3_linear_331_7406" x1="638.29" y1="1325.28" x2="4933.36" y2="-755.138" gradientUnits="userSpaceOnUse">
<stop stop-color="#FFC444"/>
<stop offset="0.9964" stop-color="#F36F56"/>
</linearGradient>
<linearGradient id="paint4_linear_331_7406" x1="754.511" y1="1565.2" x2="5049.54" y2="-515.197" gradientUnits="userSpaceOnUse">
<stop stop-color="#FFC444"/>
<stop offset="0.9964" stop-color="#F36F56"/>
</linearGradient>
<linearGradient id="paint5_linear_331_7406" x1="946.16" y1="1960.9" x2="5241.33" y2="-119.562" gradientUnits="userSpaceOnUse">
<stop stop-color="#FFC444"/>
<stop offset="0.9964" stop-color="#F36F56"/>
</linearGradient>
<linearGradient id="paint6_linear_331_7406" x1="913.848" y1="1894.19" x2="5208.93" y2="-186.236" gradientUnits="userSpaceOnUse">
<stop stop-color="#FFC444"/>
<stop offset="0.9964" stop-color="#F36F56"/>
</linearGradient>
<linearGradient id="paint7_linear_331_7406" x1="1072.9" y1="2222.55" x2="5367.98" y2="142.13" gradientUnits="userSpaceOnUse">
<stop stop-color="#FFC444"/>
<stop offset="0.9964" stop-color="#F36F56"/>
</linearGradient>
<linearGradient id="paint8_linear_331_7406" x1="1033.81" y1="886.804" x2="1706.22" y2="886.804" gradientUnits="userSpaceOnUse">
<stop stop-color="#444B8C"/>
<stop offset="0.9964" stop-color="#26264F"/>
</linearGradient>
<linearGradient id="paint9_linear_331_7406" x1="1010.28" y1="1723.93" x2="1173.7" y2="2543.83" gradientUnits="userSpaceOnUse">
<stop stop-color="#FF9085"/>
<stop offset="1" stop-color="#FB6FBB"/>
</linearGradient>
<linearGradient id="paint10_linear_331_7406" x1="976.976" y1="1730.58" x2="1140.4" y2="2550.48" gradientUnits="userSpaceOnUse">
<stop stop-color="#FF9085"/>
<stop offset="1" stop-color="#FB6FBB"/>
</linearGradient>
<linearGradient id="paint11_linear_331_7406" x1="976.976" y1="1906" x2="1140.4" y2="2725.9" gradientUnits="userSpaceOnUse">
<stop stop-color="#FF9085"/>
<stop offset="1" stop-color="#FB6FBB"/>
</linearGradient>
<linearGradient id="paint12_linear_331_7406" x1="912.891" y1="1743.35" x2="1076.31" y2="2563.25" gradientUnits="userSpaceOnUse">
<stop stop-color="#FF9085"/>
<stop offset="1" stop-color="#FB6FBB"/>
</linearGradient>
<linearGradient id="paint13_linear_331_7406" x1="2021.66" y1="2408.51" x2="2042.36" y2="2100.42" gradientUnits="userSpaceOnUse">
<stop stop-color="#444B8C"/>
<stop offset="0.9964" stop-color="#26264F"/>
</linearGradient>
<linearGradient id="paint14_linear_331_7406" x1="1918.07" y1="2300.31" x2="1932.5" y2="2085.38" gradientUnits="userSpaceOnUse">
<stop offset="0.1" stop-color="#311944"/>
<stop offset="0.267" stop-color="#371B47"/>
<stop offset="0.4803" stop-color="#462150"/>
<stop offset="0.7186" stop-color="#612A5F"/>
<stop offset="0.9736" stop-color="#853774"/>
<stop offset="1" stop-color="#893976"/>
</linearGradient>
<linearGradient id="paint15_linear_331_7406" x1="1843.77" y1="2146.34" x2="2003.41" y2="2231.93" gradientUnits="userSpaceOnUse">
<stop offset="0.1" stop-color="#311944"/>
<stop offset="0.267" stop-color="#371B47"/>
<stop offset="0.4803" stop-color="#462150"/>
<stop offset="0.7186" stop-color="#612A5F"/>
<stop offset="0.9736" stop-color="#853774"/>
<stop offset="1" stop-color="#893976"/>
</linearGradient>
<linearGradient id="paint16_linear_331_7406" x1="1798.61" y1="2444.9" x2="1822.07" y2="2095.58" gradientUnits="userSpaceOnUse">
<stop stop-color="#444B8C"/>
<stop offset="0.9964" stop-color="#26264F"/>
</linearGradient>
<linearGradient id="paint17_linear_331_7406" x1="1630.53" y1="2415.34" x2="1540.05" y2="1588.2" gradientUnits="userSpaceOnUse">
<stop offset="0.1" stop-color="#311944"/>
<stop offset="0.6853" stop-color="#6D2F66"/>
<stop offset="1" stop-color="#893976"/>
</linearGradient>
<linearGradient id="paint18_linear_331_7406" x1="2022.45" y1="2762.51" x2="1424.52" y2="2429.57" gradientUnits="userSpaceOnUse">
<stop stop-color="#311944"/>
<stop offset="1" stop-color="#893976"/>
</linearGradient>
<linearGradient id="paint19_linear_331_7406" x1="1482.58" y1="2296.45" x2="1664.39" y2="2601.33" gradientUnits="userSpaceOnUse">
<stop stop-color="#311944"/>
<stop offset="1" stop-color="#893976"/>
</linearGradient>
<linearGradient id="paint20_linear_331_7406" x1="1931.76" y1="1930.83" x2="1998.41" y2="2825.4" gradientUnits="userSpaceOnUse">
<stop offset="0.1" stop-color="#311944"/>
<stop offset="0.6853" stop-color="#6D2F66"/>
<stop offset="1" stop-color="#893976"/>
</linearGradient>
<linearGradient id="paint21_linear_331_7406" x1="1819.98" y1="2438.48" x2="2303.92" y2="2811.35" gradientUnits="userSpaceOnUse">
<stop stop-color="#311944"/>
<stop offset="1" stop-color="#893976"/>
</linearGradient>
<linearGradient id="paint22_linear_331_7406" x1="1699.89" y1="2384.76" x2="1898.11" y2="2377.06" gradientUnits="userSpaceOnUse">
<stop offset="0.1" stop-color="#311944"/>
<stop offset="0.6853" stop-color="#6D2F66"/>
<stop offset="1" stop-color="#893976"/>
</linearGradient>
<linearGradient id="paint23_linear_331_7406" x1="2011.13" y1="3079.21" x2="1939.36" y2="2272.7" gradientUnits="userSpaceOnUse">
<stop offset="0.1" stop-color="#311944"/>
<stop offset="0.267" stop-color="#371B47"/>
<stop offset="0.4803" stop-color="#462150"/>
<stop offset="0.7186" stop-color="#612A5F"/>
<stop offset="0.9736" stop-color="#853774"/>
<stop offset="1" stop-color="#893976"/>
</linearGradient>
<linearGradient id="paint24_linear_331_7406" x1="2045.98" y1="3265.02" x2="1924.43" y2="2153.97" gradientUnits="userSpaceOnUse">
<stop stop-color="#311944"/>
<stop offset="1" stop-color="#893976"/>
</linearGradient>
<linearGradient id="paint25_linear_331_7406" x1="2069.4" y1="2606.2" x2="1709.42" y2="2418.02" gradientUnits="userSpaceOnUse">
<stop stop-color="#444B8C"/>
<stop offset="0.9964" stop-color="#26264F"/>
</linearGradient>
<linearGradient id="paint26_linear_331_7406" x1="2916.36" y1="2211.44" x2="1705.03" y2="2645.93" gradientUnits="userSpaceOnUse">
<stop stop-color="#444B8C"/>
<stop offset="0.9964" stop-color="#26264F"/>
</linearGradient>
<linearGradient id="paint27_linear_331_7406" x1="1157.97" y1="1515.69" x2="1141.81" y2="1727.24" gradientUnits="userSpaceOnUse">
<stop stop-color="#FFC444"/>
<stop offset="0.9964" stop-color="#F36F56"/>
</linearGradient>
<linearGradient id="paint28_linear_331_7406" x1="1436.99" y1="1302.04" x2="578.398" y2="1874.95" gradientUnits="userSpaceOnUse">
<stop stop-color="#FF9085"/>
<stop offset="1" stop-color="#FB6FBB"/>
</linearGradient>
<linearGradient id="paint29_linear_331_7406" x1="852.155" y1="2659.93" x2="763.761" y2="3118.71" gradientUnits="userSpaceOnUse">
<stop stop-color="#311944"/>
<stop offset="1" stop-color="#893976"/>
</linearGradient>
<linearGradient id="paint30_linear_331_7406" x1="766.903" y1="2986.12" x2="752.964" y2="2834.85" gradientUnits="userSpaceOnUse">
<stop stop-color="#FFC444"/>
<stop offset="0.9964" stop-color="#F36F56"/>
</linearGradient>
<linearGradient id="paint31_linear_331_7406" x1="692.989" y1="2629.25" x2="604.593" y2="3088.04" gradientUnits="userSpaceOnUse">
<stop stop-color="#311944"/>
<stop offset="1" stop-color="#893976"/>
</linearGradient>
<linearGradient id="paint32_linear_331_7406" x1="591.993" y1="3002.23" x2="578.054" y2="2850.97" gradientUnits="userSpaceOnUse">
<stop stop-color="#FFC444"/>
<stop offset="0.9964" stop-color="#F36F56"/>
</linearGradient>
<linearGradient id="paint33_linear_331_7406" x1="815.161" y1="2492.18" x2="653.956" y2="2505.1" gradientUnits="userSpaceOnUse">
<stop stop-color="#444B8C"/>
<stop offset="0.9964" stop-color="#26264F"/>
</linearGradient>
<linearGradient id="paint34_linear_331_7406" x1="815.158" y1="2492.18" x2="653.955" y2="2505.1" gradientUnits="userSpaceOnUse">
<stop stop-color="#444B8C"/>
<stop offset="0.9964" stop-color="#26264F"/>
</linearGradient>
<linearGradient id="paint35_linear_331_7406" x1="725.995" y1="2522.5" x2="481.275" y2="2542.12" gradientUnits="userSpaceOnUse">
<stop stop-color="#444B8C"/>
<stop offset="0.9964" stop-color="#26264F"/>
</linearGradient>
<linearGradient id="paint36_linear_331_7406" x1="236.445" y1="2590.93" x2="719.746" y2="1763.07" gradientUnits="userSpaceOnUse">
<stop stop-color="#FF9085"/>
<stop offset="1" stop-color="#FB6FBB"/>
</linearGradient>
<linearGradient id="paint37_linear_331_7406" x1="236.499" y1="2590.97" x2="719.809" y2="1763.1" gradientUnits="userSpaceOnUse">
<stop stop-color="#FF9085"/>
<stop offset="1" stop-color="#FB6FBB"/>
</linearGradient>
<linearGradient id="paint38_linear_331_7406" x1="534.211" y1="2129.37" x2="446.117" y2="2136.44" gradientUnits="userSpaceOnUse">
<stop stop-color="#FFC444"/>
<stop offset="0.9964" stop-color="#F36F56"/>
</linearGradient>
<linearGradient id="paint39_linear_331_7406" x1="797.834" y1="2383.96" x2="351.146" y2="1742.67" gradientUnits="userSpaceOnUse">
<stop stop-color="#FF9085"/>
<stop offset="1" stop-color="#FB6FBB"/>
</linearGradient>
<linearGradient id="paint40_linear_331_7406" x1="660.461" y1="1521.31" x2="646.349" y2="1738.96" gradientUnits="userSpaceOnUse">
<stop stop-color="#FFC444"/>
<stop offset="0.9964" stop-color="#F36F56"/>
</linearGradient>
<linearGradient id="paint41_linear_331_7406" x1="622.678" y1="1630.59" x2="674.689" y2="1459.49" gradientUnits="userSpaceOnUse">
<stop stop-color="#444B8C"/>
<stop offset="0.9964" stop-color="#3E4177"/>
</linearGradient>
<linearGradient id="paint42_linear_331_7406" x1="26.4102" y1="832.519" x2="-348.348" y2="423.424" gradientUnits="userSpaceOnUse">
<stop stop-color="#FFC444"/>
<stop offset="0.9964" stop-color="#F36F56"/>
</linearGradient>
<linearGradient id="paint43_linear_331_7406" x1="661.755" y1="1562.82" x2="670.762" y2="1694.77" gradientUnits="userSpaceOnUse">
<stop stop-color="#444B8C"/>
<stop offset="0.9964" stop-color="#26264F"/>
</linearGradient>
<linearGradient id="paint44_linear_331_7406" x1="706.882" y1="1872.15" x2="701.919" y2="1490.45" gradientUnits="userSpaceOnUse">
<stop stop-color="#444B8C"/>
<stop offset="0.9964" stop-color="#26264F"/>
</linearGradient>
<linearGradient id="paint45_linear_331_7406" x1="2385.68" y1="837.391" x2="2157.88" y2="1056.34" gradientUnits="userSpaceOnUse">
<stop stop-color="#AA80F9"/>
<stop offset="0.9964" stop-color="#6165D7"/>
</linearGradient>
<linearGradient id="paint46_linear_331_7406" x1="1708.63" y1="887.282" x2="2482.97" y2="2153.77" gradientUnits="userSpaceOnUse">
<stop stop-color="#AA80F9"/>
<stop offset="0.9964" stop-color="#6165D7"/>
</linearGradient>
<linearGradient id="paint47_linear_331_7406" x1="2121.92" y1="1608.37" x2="1493.05" y2="343.825" gradientUnits="userSpaceOnUse">
<stop stop-color="#AA80F9"/>
<stop offset="0.9964" stop-color="#6165D7"/>
</linearGradient>
<linearGradient id="paint48_linear_331_7406" x1="2464.68" y1="1084.5" x2="2046.68" y2="1284.49" gradientUnits="userSpaceOnUse">
<stop stop-color="#AA80F9"/>
<stop offset="0.9964" stop-color="#6165D7"/>
</linearGradient>
<linearGradient id="paint49_linear_331_7406" x1="2145.77" y1="949.635" x2="1475.54" y2="1991.02" gradientUnits="userSpaceOnUse">
<stop stop-color="#AA80F9"/>
<stop offset="0.9964" stop-color="#6165D7"/>
</linearGradient>
</defs>
</svg>
